<svg width="182" height="149" viewBox="0 0 182 149" fill="none" xmlns="http://www.w3.org/2000/svg">
<path d="M74.9147 43.1952C94.9847 42.0652 115.865 54.1657 122.795 81.8507C130.524 82.5116 137.735 86.1836 143.001 92.1402C148.267 98.0967 151.204 105.904 151.232 114.018C151.261 122.132 148.378 129.962 143.153 135.959C137.929 141.955 130.744 145.682 123.02 146.402H36.4847C-4.96031 140.517 -10.6303 77.3778 36.4847 68.9028C40.1717 61.4668 45.6638 55.1767 52.4093 50.6643C59.1549 46.1519 66.9165 43.576 74.9147 43.1952Z" stroke="white" stroke-width="5" stroke-linecap="round" stroke-linejoin="round"/>
<path d="M97.9545 48.092C99.9066 43.9785 102.756 40.403 106.273 37.6544C109.789 34.9057 113.874 33.061 118.198 32.2692C122.522 31.4773 126.963 31.7606 131.163 33.0961C135.363 34.4315 139.204 36.7818 142.375 39.957C145.547 43.1322 147.96 47.0434 149.42 51.3745C150.88 55.7057 151.346 60.3355 150.781 64.8899C150.215 69.4444 148.634 73.7958 146.164 77.5927C143.695 81.3897 140.406 84.5257 136.564 86.7474M123.064 19.4183V2.79785M94.9395 31.6129L83.6895 19.842M151.189 90.5141L162.439 102.238M162.844 61.0399H178.729M151.189 31.6129L162.439 19.842" stroke="white" stroke-width="5" stroke-linecap="round" stroke-linejoin="round"/>
</svg>
